<?xml version="1.0" standalone="no"?><!DOCTYPE svg PUBLIC "-//W3C//DTD SVG 1.1//EN" "http://www.w3.org/Graphics/SVG/1.1/DTD/svg11.dtd"><svg t="1730032038922" class="icon" viewBox="0 0 1024 1024" version="1.1" xmlns="http://www.w3.org/2000/svg" p-id="24701" xmlns:xlink="http://www.w3.org/1999/xlink" width="256" height="256"><path d="M477.090909 162.909091V116.363636c0-18.618182 16.290909-34.909091 34.909091-34.909091s34.909091 16.290909 34.909091 34.909091v46.545455c0 18.618182-16.290909 34.909091-34.909091 34.909091s-34.909091-16.290909-34.909091-34.909091zM256 283.927273c6.981818 6.981818 16.290909 9.309091 25.6 9.309091s18.618182-2.327273 25.6-9.309091c13.963636-13.963636 13.963636-34.909091 0-48.872728l-32.581818-32.581818c-13.963636-16.290909-37.236364-16.290909-51.2-2.327272s-13.963636 34.909091 0 48.872727l32.581818 34.909091z m-69.818182 169.890909H139.636364c-18.618182 0-34.909091 16.290909-34.909091 34.909091s16.290909 34.909091 34.909091 34.909091h46.545454c18.618182 0 34.909091-16.290909 34.909091-34.909091s-16.290909-34.909091-34.909091-34.909091z m69.818182 239.709091l-32.581818 32.581818c-13.963636 13.963636-13.963636 34.909091 0 48.872727 6.981818 6.981818 16.290909 9.309091 25.6 9.309091s18.618182-2.327273 25.6-9.309091l32.581818-32.581818c13.963636-13.963636 13.963636-34.909091 0-48.872727s-37.236364-11.636364-51.2 0z m349.090909 86.109091h-186.181818c-18.618182 0-34.909091 16.290909-34.909091 34.909091s16.290909 34.909091 34.909091 34.90909h186.181818c18.618182 0 34.909091-16.290909 34.909091-34.90909s-16.290909-34.909091-34.909091-34.909091z m-46.545454 93.090909h-93.09091c-18.618182 0-34.909091 16.290909-34.90909 34.909091s16.290909 34.909091 34.90909 34.909091h93.09091c18.618182 0 34.909091-16.290909 34.90909-34.909091s-16.290909-34.909091-34.90909-34.909091z m209.454545-179.2c-13.963636-13.963636-34.909091-13.963636-48.872727 0s-13.963636 34.909091 0 48.872727l32.581818 32.581818c6.981818 6.981818 16.290909 9.309091 25.6 9.309091s18.618182-2.327273 25.6-9.309091c13.963636-13.963636 13.963636-34.909091 0-48.872727L768 693.527273z m116.363636-239.709091h-46.545454c-18.618182 0-34.909091 16.290909-34.909091 34.909091s16.290909 34.909091 34.909091 34.909091h46.545454c18.618182 0 34.909091-16.290909 34.909091-34.909091s-16.290909-34.909091-34.909091-34.909091z m-141.963636-160.581818c9.309091 0 18.618182-2.327273 25.6-9.309091l32.581818-32.581818c13.963636-13.963636 13.963636-34.909091 0-48.872728s-34.909091-13.963636-48.872727 0L716.8 232.727273c-13.963636 13.963636-13.963636 34.909091 0 48.872727 6.981818 9.309091 16.290909 11.636364 25.6 11.636364zM512 232.727273c-141.963636 0-256 114.036364-256 256s114.036364 256 256 256 256-114.036364 256-256-114.036364-256-256-256z" fill="#ffffff" p-id="24702"></path></svg>