<?xml version="1.0" standalone="no"?><!DOCTYPE svg PUBLIC "-//W3C//DTD SVG 1.1//EN" "http://www.w3.org/Graphics/SVG/1.1/DTD/svg11.dtd"><svg t="1730031701596" class="icon" viewBox="0 0 1024 1024" version="1.1" xmlns="http://www.w3.org/2000/svg" p-id="19617" data-spm-anchor-id="a313x.search_index.0.i32.340c3a81uLbAhS" xmlns:xlink="http://www.w3.org/1999/xlink" width="256" height="256"><path d="M870.4 102.4h-10.24v54.613333h-102.4V102.4H273.066667v54.613333H170.666667V102.4h-10.24c-30.72 0-54.613333 23.893333-54.613334 54.613333v709.973334c0 30.72 23.893333 54.613333 54.613334 54.613333H170.666667v-54.613333h102.4V921.6h484.693333v-54.613333h102.4V921.6h10.24c30.72 0 54.613333-23.893333 54.613333-54.613333V157.013333c0-30.72-23.893333-54.613333-54.613333-54.613333zM273.066667 764.586667H170.666667v-102.4h102.4v102.4z m0-201.386667H170.666667v-102.4h102.4v102.4z m0-201.386667H170.666667v-102.4h102.4v102.4z m389.12 167.253334l-204.8 119.466666c-13.653333 6.826667-30.72-3.413333-30.72-17.066666v-235.52c0-17.066667 17.066667-23.893333 30.72-17.066667l204.8 119.466667c13.653333 3.413333 13.653333 23.893333 0 30.72z m201.386666 235.52h-102.4v-102.4h102.4v102.4z m0-201.386667h-102.4v-102.4h102.4v102.4z m0-201.386667h-102.4v-102.4h102.4v102.4z" fill="#ffffff" p-id="19618" data-spm-anchor-id="a313x.search_index.0.i33.340c3a81uLbAhS" class="selected"></path></svg>