<?xml version="1.0" standalone="no"?><!DOCTYPE svg PUBLIC "-//W3C//DTD SVG 1.1//EN" "http://www.w3.org/Graphics/SVG/1.1/DTD/svg11.dtd"><svg t="1730032203288" class="icon" viewBox="0 0 1024 1024" version="1.1" xmlns="http://www.w3.org/2000/svg" p-id="32635" width="128" height="128" xmlns:xlink="http://www.w3.org/1999/xlink"><path d="M180.906667 862.293333h-5.12a21.333333 21.333333 0 0 1-15.36-14.506666L22.186667 398.933333a21.76 21.76 0 0 1 5.546666-21.333333L323.84 85.333333a21.333333 21.333333 0 0 1 20.053333-5.546666 21.333333 21.333333 0 0 1 15.36 14.506666l138.24 448.426667a21.76 21.76 0 0 1-5.546666 21.333333l-296.106667 294.4a21.333333 21.333333 0 0 1-14.933333 3.84zM66.986667 398.506667l123.733333 402.773333 261.973333-260.266667-123.733333-402.773333z" fill="#515151" p-id="32636"></path><path d="M634.88 1002.666667h-6.4L174.506667 861.44a21.333333 21.333333 0 0 1-14.506667-15.36 20.906667 20.906667 0 0 1 5.973333-20.053333l296.106667-294.4a20.906667 20.906667 0 0 1 21.333333-5.12L938.666667 666.453333a21.76 21.76 0 0 1 14.506666 15.36 22.613333 22.613333 0 0 1-5.546666 20.48l-296.533334 293.973334a20.053333 20.053333 0 0 1-16.213333 6.4z m-413.866667-170.666667l407.893334 125.866667 261.973333-260.266667-407.893333-125.866667z" fill="#515151" p-id="32637"></path><path d="M560.213333 465.493333L430.506667 42.666667l421.12 130.56 129.706666 422.4-421.12-130.133334z" fill="#515151" p-id="32638"></path><path d="M981.333333 616.96a16.64 16.64 0 0 1-6.4 0l-421.12-128a21.76 21.76 0 0 1-14.08-14.506667l-128-422.4a20.906667 20.906667 0 0 1 5.12-21.333333 21.333333 21.333333 0 0 1 21.333334-5.546667l421.12 130.56a21.333333 21.333333 0 0 1 14.08 14.08l128 422.826667a22.186667 22.186667 0 0 1-5.546667 21.333333 21.333333 21.333333 0 0 1-14.506667 2.986667z m-404.053333-170.666667l372.053333 115.2-114.773333-371.2-371.626667-115.2z" fill="#515151" p-id="32639"></path></svg>